<svg width="27" height="10" viewBox="0 0 27 10" fill="none" xmlns="http://www.w3.org/2000/svg">
<path d="M0.00800008 9V0.24H2.876C3.444 0.24 3.936 0.348 4.352 0.564C4.776 0.779999 5.1 1.088 5.324 1.488C5.556 1.88 5.672 2.344 5.672 2.88C5.672 3.408 5.556 3.872 5.324 4.272C5.092 4.672 4.768 4.98 4.352 5.196C3.936 5.412 3.444 5.52 2.876 5.52H1.304V9H0.00800008ZM1.304 4.356H2.876C3.324 4.356 3.68 4.224 3.944 3.96C4.216 3.688 4.352 3.328 4.352 2.88C4.352 2.424 4.216 2.064 3.944 1.8C3.68 1.536 3.324 1.404 2.876 1.404H1.304V4.356ZM9.79531 9.12C8.95531 9.12 8.30731 8.892 7.85131 8.436C7.39531 7.972 7.16731 7.344 7.16731 6.552V0.24H8.46331V6.552C8.46331 6.992 8.57131 7.34 8.78731 7.596C9.01131 7.852 9.34731 7.98 9.79531 7.98C10.2353 7.98 10.5673 7.852 10.7913 7.596C11.0153 7.34 11.1273 6.992 11.1273 6.552V0.24H12.4233V6.552C12.4233 7.344 12.1953 7.972 11.7393 8.436C11.2833 8.892 10.6353 9.12 9.79531 9.12ZM17.0266 9.12C16.4346 9.12 15.9266 9.024 15.5026 8.832C15.0786 8.632 14.7506 8.352 14.5186 7.992C14.2866 7.624 14.1706 7.188 14.1706 6.684H15.4546C15.4546 7.084 15.5946 7.4 15.8746 7.632C16.1546 7.856 16.5426 7.968 17.0386 7.968C17.5026 7.968 17.8666 7.856 18.1306 7.632C18.3946 7.408 18.5266 7.1 18.5266 6.708C18.5266 6.38 18.4346 6.096 18.2506 5.856C18.0746 5.616 17.8186 5.452 17.4826 5.364L16.3786 5.04C15.7386 4.856 15.2426 4.544 14.8906 4.104C14.5466 3.656 14.3746 3.124 14.3746 2.508C14.3746 2.028 14.4826 1.608 14.6986 1.248C14.9146 0.888 15.2226 0.608 15.6226 0.408C16.0226 0.207999 16.4946 0.107999 17.0386 0.107999C17.8386 0.107999 18.4786 0.323999 18.9586 0.756C19.4466 1.188 19.6946 1.768 19.7026 2.496H18.4066C18.4066 2.112 18.2826 1.812 18.0346 1.596C17.7946 1.372 17.4546 1.26 17.0146 1.26C16.5906 1.26 16.2586 1.364 16.0186 1.572C15.7786 1.772 15.6586 2.056 15.6586 2.424C15.6586 2.752 15.7466 3.036 15.9226 3.276C16.1066 3.516 16.3666 3.684 16.7026 3.78L17.8186 4.116C18.4586 4.292 18.9506 4.604 19.2946 5.052C19.6386 5.5 19.8106 6.036 19.8106 6.66C19.8106 7.148 19.6946 7.58 19.4626 7.956C19.2306 8.324 18.9066 8.612 18.4906 8.82C18.0746 9.02 17.5866 9.12 17.0266 9.12ZM21.6059 9V0.24H22.9019V3.864H25.4699V0.24H26.7659V9H25.4699V5.064H22.9019V9H21.6059Z" fill="white"/>
</svg>
